<svg id="filled_outline" height="512" viewBox="0 0 512 512" width="512" xmlns="http://www.w3.org/2000/svg" data-name="filled outline"><path d="m488 72v256a16 16 0 0 1 -16 16h-272a16 16 0 0 1 -16-16v-256z" fill="#5771e5"/><path d="m344 176 24 32h88v-64h-88z" fill="#ebc99b"/><path d="m127.9965 168 7.80065-3.90032a14.83282 14.83282 0 0 0 8.19937-13.26687v-14.83281h-36.58361a19.41638 19.41638 0 0 0 -19.41639 19.41639 19.41638 19.41638 0 0 0 2.04984 8.68328l5.95016 11.90033h24.00348z" fill="#b36f42"/><path d="m184 72h304v-32a16 16 0 0 0 -16-16h-272a16 16 0 0 0 -16 16z" fill="#89a8f5"/><path d="m95.99652 168 8-8a17.88854 17.88854 0 0 0 24 8v16a16 16 0 0 1 -16 16 16 16 0 0 1 -16-16z" fill="#ffceb6"/><path d="m328 216h-104l16-80h72z" fill="#f7c04a"/><path d="m24.20775 288a77.62452 77.62452 0 0 1 4.46573-20.85205l10.94285-30.09285a68.44606 68.44606 0 0 1 64.32516-45.0551h.00008a68.44608 68.44608 0 0 1 52.58173 24.628l32.81 39.372h-41.3333l-20-24-21 56z" fill="#ed6445"/><path d="m77.913 257.3913 27.42029-18.28019 6.66671 8.88889h64l14.63344-7.31672a6.4722 6.4722 0 0 1 2.89442-.68328 6.47213 6.47213 0 0 1 6.47214 6.47213v9.52787l14.34315 14.34315a5.65684 5.65684 0 0 1 1.65685 4 5.65685 5.65685 0 0 1 -5.65685 5.65685h-98.96315a32 32 0 0 1 -24.98781-12.00976l-8.47918-10.599z" fill="#ffceb6"/><path d="m128 168 7.80065-3.90032a14.8328 14.8328 0 0 0 8.19935-13.26686v-14.83282h-36.58361a19.41638 19.41638 0 0 0 -19.41639 19.41639 19.41651 19.41651 0 0 0 2.04984 8.68328l5.95016 11.90033h24z" fill="#b36f42"/><path d="m96 168 8-8a17.88853 17.88853 0 0 0 24 8v16a16 16 0 0 1 -16 16 16 16 0 0 1 -16-16z" fill="#ffceb6"/><path d="m64 456 24 16v16h-64v-16z" fill="#6d7eb3"/><path d="m152 456 24 16v16h-64v-16z" fill="#6d7eb3"/><path d="m107 288-3 8 44.60859 39.03252a56.78378 56.78378 0 0 1 19.39141 42.73416 56.78375 56.78375 0 0 1 -1.35219 12.31813l-14.64781 65.91519-40 16 16-96-40-40 9.9297 19.8594a57.49873 57.49873 0 0 1 6.0703 25.71422 57.49877 57.49877 0 0 1 -10.7101 33.42049l-29.2899 41.00589-40 16 40-80-31.805-63.61a77.62406 77.62406 0 0 1 -8.195-34.71455q0-2.84418.20775-5.67544z" fill="#445496"/><path d="m472 16h-272a24.0275 24.0275 0 0 0 -24 24v168h16v-128h288v248a8.00917 8.00917 0 0 1 -8 8h-272a8.00917 8.00917 0 0 1 -8-8v-24h-16v24a24.0275 24.0275 0 0 0 24 24h272a24.0275 24.0275 0 0 0 24-24v-288a24.0275 24.0275 0 0 0 -24-24zm-280 48v-24a8.00917 8.00917 0 0 1 8-8h272a8.00917 8.00917 0 0 1 8 8v24z"/><circle cx="208" cy="48" r="8"/><circle cx="232" cy="48" r="8"/><circle cx="256" cy="48" r="8"/><path d="m23.99609 496h64a8.00039 8.00039 0 0 0 8-8v-16a7.99943 7.99943 0 0 0 -3.5625-6.65625l-17.125-11.417 24.48731-34.28222a65.35231 65.35231 0 0 0 11.21777-49.3125l8.41406 8.41406-15.32324 91.93848a8.02359 8.02359 0 0 0 -.1084 1.31543v16a8.00039 8.00039 0 0 0 8 8h64a8.00039 8.00039 0 0 0 8-8v-16a7.99943 7.99943 0 0 0 -3.5625-6.65625l-19.43847-12.959 13.459-60.56543a64.78861 64.78861 0 0 0 -20.58105-62.80762l-40.44241-35.3867 2.10913-5.625h94.80005a13.65738 13.65738 0 0 0 9.65625-23.31445l-12-11.999v-6.21484a14.47066 14.47066 0 0 0 -20.94336-12.94336l-4.26123 2.13037-20.1265-24.15188a76.19772 76.19772 0 0 0 -27.60767-20.87745 23.91137 23.91137 0 0 0 .93876-6.62939v-11.05566l3.37891-1.68946a22.70754 22.70754 0 0 0 12.62109-20.42188v-14.833a8.00039 8.00039 0 0 0 -8-8h-36.583a27.41651 27.41651 0 0 0 -24.52247 39.67773l5.10547 10.21094v6.11133c0 .56543.02686 1.12427.06543 1.67993a76.67761 76.67761 0 0 0 -55.96679 48.64038l-10.94336 30.09375a85.62089 85.62089 0 0 0 3.88476 67.55371l30.01563 60.03223-38.21094 76.42188a7.99948 7.99948 0 0 0 -.84473 3.57812v16a8.00039 8.00039 0 0 0 8 8zm56-19.71875v3.71875h-48v-2.584l31.064-12.42554zm88 0v3.71875h-48v-2.584l31.064-12.42554zm26.34375-214.624 10.34278 10.34275h-93.30562a23.88157 23.88157 0 0 1 -18.74121-9.00781l-3.02837-3.78519 13.86255-9.2417 2.12573 2.83447a8.00091 8.00091 0 0 0 6.40039 3.20023h64a7.99225 7.99225 0 0 0 3.57715-.84473l12.42285-6.21093v7.05566a7.99921 7.99921 0 0 0 2.34375 5.65723zm-86.92675-117.65725h28.583v6.833a6.79557 6.79557 0 0 1 -3.77734 6.11133l-7.80078 3.90039a9.89847 9.89847 0 0 1 -13.2666-4.42285 8.00106 8.00106 0 0 0 -12.8125-2.07911l-2.27246 2.27246a11.35221 11.35221 0 0 1 11.34668-12.61522zm12.583 33.88574v6.11426a8 8 0 0 1 -16 0v-11.64941a26.05756 26.05756 0 0 0 16 5.53515zm-72.86425 61.90235a60.6179 60.6179 0 0 1 47.65039-39.08909 23.94556 23.94556 0 0 0 30.57666 3.22632 60.25712 60.25712 0 0 1 25.01511 17.82368l15.20925 18.251h-20.5061l-10.93555-13.12207a7.9993 7.9993 0 0 0 -13.63574 2.31348l-4.05322 10.80859h-.45655l-21.59961-28.7998-12.80078 9.5996 12.25952 16.3462-14.28051 9.52026-9.33155-11.66426-12.49416 9.99605 22.3926 27.98925a40.21584 40.21584 0 0 0 7.23682 7.0127h-54.01221a69.58264 69.58264 0 0 1 2.82227-10.11816zm24.01953 148.63379-31.80469-63.61036a70.00056 70.00056 0 0 1 -7.30713-28.81152h63.97705a7.98189 7.98189 0 0 0 2.71192 6.02051l44.60839 39.03222a48.78978 48.78978 0 0 1 15.49809 47.29688l-13.73218 61.79175-22.87841 9.15136 13.66333-81.97729a8.00586 8.00586 0 0 0 -2.23438-6.97266l-39.083-39.083-7.41894-14.83789-14.31055 7.15624 17.92964 35.85938a49.74237 49.74237 0 0 1 5.22558 22.13574 49.22758 49.22758 0 0 1 -9.21972 28.77149l-27.92823 39.09839-18.28662 7.31469 30.58985-61.17969a8.00263 8.00263 0 0 0 0-7.15624z"/><path d="m276 104a20.02229 20.02229 0 0 0 -20 20v4h-16a8 8 0 0 0 -7.84473 6.43066l-16 80a8.00012 8.00012 0 0 0 7.84473 9.56934h104a8.00012 8.00012 0 0 0 7.84473-9.56934l-6.08619-30.43066h10.24122l21.59985 28.7998a7.99952 7.99952 0 0 0 6.40039 3.2002h88a8.00039 8.00039 0 0 0 8-8v-64a8.00039 8.00039 0 0 0 -8-8h-88a7.99952 7.99952 0 0 0 -6.40039 3.2002l-21.59985 28.7998h-13.44117l-6.71386-33.56934a8 8 0 0 0 -7.84473-6.43066h-16v-4a20.02229 20.02229 0 0 0 -20-20zm96 48h76v48h-76l-12-16h16a8 8 0 0 0 0-16h-16zm-100-28a4 4 0 0 1 8 0v4h-8zm33.44141 20 12.7998 64h-84.48242l12.7998-64h9.44141v16h16v-16h8v16h16v-16z"/><path d="m256 264h24v16h-24z"/><path d="m296 264h160v16h-160z"/><path d="m232 296h112v16h-112z"/><path d="m360 296h48v16h-48z"/></svg>